<svg xmlns="http://www.w3.org/2000/svg" width="320" height="320" viewBox="0 0 320 320">
  <defs>
    <linearGradient id="bg" x1="0" y1="0" x2="1" y2="1">
      <stop offset="0%" stop-color="#181b23"/>
      <stop offset="100%" stop-color="#0f1117"/>
    </linearGradient>
    <linearGradient id="tower" x1="0" y1="0" x2="1" y2="1">
      <stop offset="0%" stop-color="#60a5fa"/>
      <stop offset="100%" stop-color="#2563eb"/>
    </linearGradient>
  </defs>

  <rect x="10" y="10" width="300" height="300" rx="36" fill="url(#bg)" stroke="#2a2e3a" stroke-width="4"/>

  <g fill="none" stroke="url(#tower)" stroke-linecap="round" stroke-linejoin="round" stroke-width="10">
    <path d="M160 58L112 118h96z"/>
    <path d="M160 58v156"/>
    <path d="M120 118h80"/>
    <path d="M110 140h100"/>
    <path d="M100 162h120"/>
    <path d="M90 184h140"/>
    <path d="M120 118L92 214"/>
    <path d="M200 118l28 96"/>
    <path d="M160 214L122 248h76z"/>
  </g>

  <path d="M68 92l24-8-12 22 26-10" fill="none" stroke="#f59e0b" stroke-width="7" stroke-linecap="round" stroke-linejoin="round"/>
  <path d="M252 92l24-8-12 22 26-10" fill="none" stroke="#f59e0b" stroke-width="7" stroke-linecap="round" stroke-linejoin="round"/>

  <rect x="44" y="238" width="232" height="48" rx="12" fill="#f59e0b"/>
  <text x="160" y="269" text-anchor="middle" font-family="DM Sans, Arial, sans-serif" font-size="30" font-weight="700" letter-spacing="2" fill="#0f1117">APTRANSCO</text>
</svg>
